<?xml version="1.0" encoding="UTF-8" standalone="no"?>
<svg
   xmlns:dc="http://purl.org/dc/elements/1.1/"
   xmlns:cc="http://creativecommons.org/ns#"
   xmlns:rdf="http://www.w3.org/1999/02/22-rdf-syntax-ns#"
   xmlns:svg="http://www.w3.org/2000/svg"
   xmlns="http://www.w3.org/2000/svg"
   xmlns:sodipodi="http://sodipodi.sourceforge.net/DTD/sodipodi-0.dtd"
   xmlns:inkscape="http://www.inkscape.org/namespaces/inkscape"
   width="80mm"
   height="80mm"
   viewBox="0 0 80 80"
   version="1.1"
   id="svg8"
   sodipodi:docname="logo_rab.svg"
   inkscape:version="1.0.2 (e86c870879, 2021-01-15)"
   inkscape:export-filename="/home/kevcaz/Documents/logo_v2.png"
   inkscape:export-xdpi="600"
   inkscape:export-ydpi="600">
  <defs
     id="defs2" />
  <sodipodi:namedview
     id="base"
     pagecolor="#ffffff"
     bordercolor="#666666"
     borderopacity="1.0"
     inkscape:pageopacity="0.0"
     inkscape:pageshadow="2"
     inkscape:zoom="1.6861342"
     inkscape:cx="131.24103"
     inkscape:cy="203.3594"
     inkscape:document-units="mm"
     inkscape:current-layer="g1088"
     inkscape:document-rotation="0"
     showgrid="true"
     showguides="true"
     inkscape:guide-bbox="true"
     inkscape:window-width="1920"
     inkscape:window-height="1043"
     inkscape:window-x="0"
     inkscape:window-y="0"
     inkscape:window-maximized="1">
    <sodipodi:guide
       position="-62.248509,122.02545"
       orientation="0,-1"
       id="guide992" />
    <sodipodi:guide
       position="-321.68399,171.33949"
       orientation="0,-1"
       id="guide1301" />
    <sodipodi:guide
       position="46.044476,48.121675"
       orientation="0,-1"
       id="guide967" />
    <sodipodi:guide
       position="-41.956332,162.37341"
       orientation="1,0"
       id="guide969" />
    <sodipodi:guide
       position="37.636512,57"
       orientation="0,1"
       id="guide1001"
       inkscape:label=""
       inkscape:locked="false"
       inkscape:color="rgb(0,0,255)" />
    <sodipodi:guide
       position="34.425814,77"
       orientation="0,1"
       id="guide1003"
       inkscape:label=""
       inkscape:locked="false"
       inkscape:color="rgb(0,0,255)" />
    <sodipodi:guide
       position="46.02,67"
       orientation="0,1"
       id="guide1005"
       inkscape:label=""
       inkscape:locked="false"
       inkscape:color="rgb(0,0,255)" />
    <inkscape:grid
       type="xygrid"
       id="grid873" />
  </sodipodi:namedview>
  <metadata
     id="metadata5">
    <rdf:RDF>
      <cc:Work
         rdf:about="">
        <dc:format>image/svg+xml</dc:format>
        <dc:type
           rdf:resource="http://purl.org/dc/dcmitype/StillImage" />
        <dc:title />
      </cc:Work>
    </rdf:RDF>
  </metadata>
  <g
     inkscape:label="Layer 1"
     inkscape:groupmode="layer"
     id="layer1">
    <g
       id="g1088"
       transform="matrix(0.69060967,0,0,0.69060967,-12.837929,-60.521322)">
      <rect
         id="rect5134"
         rx="23.459486"
         ry="22.300671"
         height="80.885765"
         width="115.52718"
         y="113.42746"
         x="18.740141"
         style="stroke-width:0" />
      <rect
         id="rect5136"
         rx="20.898832"
         ry="20.159462"
         height="73.119377"
         width="102.91733"
         y="117.27451"
         x="24.859886"
         fill="#ffffff"
         style="fill:#00ff00;fill-opacity:1;stroke-width:0" />
      <g
         id="g884"
         transform="translate(0.11469617)">
        <rect
           id="rect6107"
           rx="9.1246204"
           ry="9.9625797"
           height="36.136116"
           width="44.936321"
           y="128.69487"
           x="78.768799"
           style="stroke:#4300df;stroke-width:0;stroke-opacity:1" />
        <rect
           id="rect6109"
           rx="8.1787157"
           ry="8.9299097"
           height="32.388977"
           width="40.27739"
           y="130.4155"
           x="80.962967"
           fill="#ffffff"
           style="fill:#ffff00;fill-opacity:1;stroke:#4300df;stroke-width:0;stroke-opacity:1" />
        <rect
           id="rect7184"
           rx="6.4796567"
           ry="7.0666518"
           height="25.631359"
           width="31.90975"
           y="133.79431"
           x="85.14679"
           style="stroke:#4300df;stroke-width:0;stroke-opacity:1" />
        <rect
           id="rect7186"
           rx="6.1389332"
           ry="6.6494985"
           height="24.117941"
           width="30.230734"
           y="134.6199"
           x="85.972511"
           fill="#ffffff"
           style="fill:#ffffff;fill-opacity:1;stroke:#6a00df;stroke-width:0;stroke-opacity:1" />
        <path
           style="fill:none;stroke:#000000;stroke-width:0.766231;stroke-linecap:butt;stroke-linejoin:miter;stroke-miterlimit:4;stroke-dasharray:none;stroke-opacity:1"
           d="M 85.519802,146.67887 H 116.55216"
           id="path871" />
        <path
           style="fill:none;stroke:#ff0101;stroke-width:0.766231;stroke-linecap:butt;stroke-linejoin:miter;stroke-miterlimit:4;stroke-dasharray:none;stroke-opacity:1"
           d="m 89.405657,145.10197 v 3.44804 0"
           id="path875" />
        <path
           style="fill:none;stroke:#ff0101;stroke-width:0.766231;stroke-linecap:butt;stroke-linejoin:miter;stroke-miterlimit:4;stroke-dasharray:none;stroke-opacity:1"
           d="m 90.773926,144.64529 v 4.3614 0"
           id="path875-5" />
        <path
           style="fill:none;stroke:#ff0101;stroke-width:0.766231;stroke-linecap:butt;stroke-linejoin:miter;stroke-miterlimit:4;stroke-dasharray:none;stroke-opacity:1"
           d="m 98.983546,145.10197 v 3.44804 0"
           id="path875-6" />
        <path
           style="fill:none;stroke:#ff0101;stroke-width:0.766231;stroke-linecap:butt;stroke-linejoin:miter;stroke-miterlimit:4;stroke-dasharray:none;stroke-opacity:1"
           d="m 88.037388,145.48508 v 2.68182 0"
           id="path875-2" />
        <path
           style="fill:none;stroke:#ff0101;stroke-width:0.766231;stroke-linecap:butt;stroke-linejoin:miter;stroke-miterlimit:4;stroke-dasharray:none;stroke-opacity:1"
           d="m 103.08836,143.45151 v 6.74896 0"
           id="path875-9" />
        <path
           style="fill:none;stroke:#ff0101;stroke-width:0.766231;stroke-linecap:butt;stroke-linejoin:miter;stroke-miterlimit:4;stroke-dasharray:none;stroke-opacity:1"
           d="m 92.142202,143.37795 v 6.89608 0"
           id="path875-1" />
        <path
           style="fill:none;stroke:#ff0101;stroke-width:0.766231;stroke-linecap:butt;stroke-linejoin:miter;stroke-miterlimit:4;stroke-dasharray:none;stroke-opacity:1"
           d="m 101.72009,144.5273 v 4.59738 0"
           id="path875-27" />
        <path
           style="fill:none;stroke:#ff0101;stroke-width:0.766231;stroke-linecap:butt;stroke-linejoin:miter;stroke-miterlimit:4;stroke-dasharray:none;stroke-opacity:1"
           d="m 100.35181,144.1664 v 5.31918 0"
           id="path875-0" />
        <path
           style="fill:none;stroke:#ff0101;stroke-width:0.766231;stroke-linecap:butt;stroke-linejoin:miter;stroke-miterlimit:4;stroke-dasharray:none;stroke-opacity:1"
           d="m 114.03452,144.71886 v 4.21427 0"
           id="path875-93" />
        <path
           style="fill:none;stroke:#ff0101;stroke-width:0.766231;stroke-linecap:butt;stroke-linejoin:miter;stroke-miterlimit:4;stroke-dasharray:none;stroke-opacity:1"
           d="m 93.510471,144.71886 v 4.21427 0"
           id="path875-60" />
        <path
           style="fill:none;stroke:#ff0101;stroke-width:0.766231;stroke-linecap:butt;stroke-linejoin:miter;stroke-miterlimit:4;stroke-dasharray:none;stroke-opacity:1"
           d="m 104.45663,141.97805 v 9.69589 0"
           id="path875-62" />
        <path
           style="fill:none;stroke:#ff0101;stroke-width:0.766231;stroke-linecap:butt;stroke-linejoin:miter;stroke-miterlimit:4;stroke-dasharray:none;stroke-opacity:1"
           d="m 96.24701,145.29353 v 3.06492 0"
           id="path875-61" />
        <path
           style="fill:none;stroke:#ff0101;stroke-width:0.766231;stroke-linecap:butt;stroke-linejoin:miter;stroke-miterlimit:4;stroke-dasharray:none;stroke-opacity:1"
           d="m 115.40279,145.48508 v 2.68182 0"
           id="path875-8" />
        <path
           style="fill:none;stroke:#ff0101;stroke-width:0.766231;stroke-linecap:butt;stroke-linejoin:miter;stroke-miterlimit:4;stroke-dasharray:none;stroke-opacity:1"
           d="m 107.19317,136.93854 v 19.7749 0"
           id="path875-9-2" />
        <path
           style="fill:none;stroke:#ff0101;stroke-width:0.766231;stroke-linecap:butt;stroke-linejoin:miter;stroke-miterlimit:4;stroke-dasharray:none;stroke-opacity:1"
           d="m 105.8249,139.81191 v 14.02816 0"
           id="path875-9-2-2" />
        <path
           style="fill:none;stroke:#ff0101;stroke-width:0.766231;stroke-linecap:butt;stroke-linejoin:miter;stroke-miterlimit:4;stroke-dasharray:none;stroke-opacity:1"
           d="m 108.56144,139.14146 v 15.36906 0"
           id="path875-9-2-8" />
        <path
           style="fill:none;stroke:#ff0101;stroke-width:0.766231;stroke-linecap:butt;stroke-linejoin:miter;stroke-miterlimit:4;stroke-dasharray:none;stroke-opacity:1"
           d="m 109.9297,140.95398 v 11.74403 0"
           id="path875-9-2-9" />
        <path
           style="fill:none;stroke:#ff0101;stroke-width:0.766231;stroke-linecap:butt;stroke-linejoin:miter;stroke-miterlimit:4;stroke-dasharray:none;stroke-opacity:1"
           d="m 111.29798,142.10332 v 9.44534 0"
           id="path875-9-2-7" />
        <path
           style="fill:none;stroke:#ff0101;stroke-width:0.766231;stroke-linecap:butt;stroke-linejoin:miter;stroke-miterlimit:4;stroke-dasharray:none;stroke-opacity:1"
           d="m 112.66625,143.17183 v 7.30832 0"
           id="path875-9-2-3" />
        <path
           style="fill:none;stroke:#ff0101;stroke-width:0.766231;stroke-linecap:butt;stroke-linejoin:miter;stroke-miterlimit:4;stroke-dasharray:none;stroke-opacity:1"
           d="m 94.878737,145.29353 v 3.06492 0"
           id="path875-61-1" />
        <path
           style="fill:none;stroke:#ff0101;stroke-width:0.766231;stroke-linecap:butt;stroke-linejoin:miter;stroke-miterlimit:4;stroke-dasharray:none;stroke-opacity:1"
           d="m 97.615276,144.07063 v 5.51072 0"
           id="path875-60-2" />
        <path
           style="fill:none;stroke:#ff0101;stroke-width:0.766231;stroke-linecap:butt;stroke-linejoin:miter;stroke-miterlimit:4;stroke-dasharray:none;stroke-opacity:1"
           d="m 86.669121,145.48508 v 2.68182 0"
           id="path875-8-9" />
      </g>
      <g
         id="g7259"
         style="stroke-width:0"
         transform="matrix(0.2243749,0,0,0.22580765,-4.6625625,41.172961)">
        <rect
           id="rect6111"
           rx="31.603001"
           ry="59.078999"
           height="214.28999"
           width="155.63"
           y="412.35999"
           x="192.94" />
        <rect
           id="rect6113"
           rx="28.51"
           ry="52.955002"
           height="192.07001"
           width="140.39999"
           y="422.56"
           x="200.53"
           fill="#ffffff" />
        <rect
           id="rect7223"
           rx="0"
           ry="4.5026999"
           height="4.5026999"
           width="144.99001"
           y="465.20999"
           x="198.12" />
        <rect
           id="rect7225"
           rx="0"
           ry="4.5026999"
           height="4.5026999"
           width="144.99001"
           y="491.32999"
           x="197.22" />
        <rect
           id="rect7227"
           rx="0"
           ry="4.5026999"
           height="4.5026999"
           width="144.99001"
           y="516.53998"
           x="197.22" />
        <rect
           id="rect7229"
           rx="0"
           ry="4.5026999"
           height="4.5026999"
           width="144.99001"
           y="541.76001"
           x="197.22" />
        <rect
           id="rect7231"
           rx="0"
           ry="4.5026999"
           height="4.5026999"
           width="144.99001"
           y="565.59003"
           x="197.22" />
      </g>
      <path
         id="path7244"
         d="m 49.036089,197.16275 a 8.33994,4.7654685 0 1 1 -16.67988,0 8.33994,4.7654685 0 1 1 16.67988,0 z"
         style="stroke-width:0" />
      <path
         id="path7246"
         d="m 121.23188,197.639 a 8.33994,4.7654685 0 1 1 -16.67988,0 8.33994,4.7654685 0 1 1 16.67988,0 z"
         style="stroke-width:0" />
      <rect
         id="rect7250"
         ry="16.830318"
         rx="0"
         transform="matrix(-0.94527314,-0.32628007,-0.8440147,0.53632004,0,0)"
         height="47.677132"
         width="3.6588416"
         y="59.708363"
         x="-176.1143"
         style="stroke-width:0" />
      <circle
         style="fill:#ffffff;fill-opacity:1;fill-rule:evenodd;stroke:none;stroke-width:1.25439;stroke-linecap:round;stroke-linejoin:round;stroke-miterlimit:4;stroke-dasharray:none;stroke-dashoffset:0;stroke-opacity:1"
         id="circle4331-7-5"
         cx="42.134846"
         cy="135.36963"
         r="0.87855792" />
      <path
         inkscape:connector-curvature="0"
         style="fill:#ffffff;fill-opacity:1;stroke:#000000;stroke-width:1.48689;stroke-miterlimit:4;stroke-dasharray:none;stroke-opacity:1"
         d="m 31.569026,169.03519 c -1.419704,-0.56084 -2.57038,-1.41472 -3.312572,-2.45811 -0.61889,-0.87007 -0.630417,-1.0665 -0.630417,-10.74591 0,-9.67943 0.01153,-9.87587 0.630417,-10.74592 0.742192,-1.04339 1.892868,-1.89727 3.312572,-2.45811 0.757653,-0.29933 1.87276,-0.42676 4.308067,-0.49236 l 3.285819,-0.0885 v 0.89059 l 0.135651,2.83125 -3.728901,0.12066 c -3.448653,0.1116 -4.133088,0.20908 -4.210305,2.06932 -0.02954,0.71162 -0.05001,-1.45657 -0.05001,8.01132 0,9.46788 0.02048,7.31868 0.02048,8.01321 1.306001,1.32694 1.069398,1.32848 4.51328,1.5414 l 3.523342,0.21783 -0.20353,2.9836 v 0.89057 l -3.285819,-0.0885 c -2.435307,-0.0655 -3.550413,-0.19302 -4.308067,-0.49235 z"
         id="path3465-1-7-5"
         sodipodi:nodetypes="cssssccccssscscccsc" />
      <path
         inkscape:connector-curvature="0"
         style="fill:#000000;fill-opacity:1;stroke-width:0.1872"
         d="m 43.962525,142.74679 c -0.953289,-0.12315 -1.209096,-0.89801 -1.209096,-0.89801 l -0.123138,7.95802 c -0.02661,0.98475 -1.386085,1.44209 -2.377448,1.66827 -0.530619,-0.0466 -1.056638,-0.15933 -1.426888,-0.35081 -1.322458,-0.68386 -1.36955,-0.98945 -1.368144,-8.87744 7.08e-4,-4.00166 0.101268,-7.54287 0.227053,-7.99562 0.501441,-1.80502 2.42566,-3.516 4.264211,-3.79172 0.920758,-0.13807 1.015199,-0.2116 1.015199,-0.79048 0,-1.16784 0.899298,-3.54063 1.780235,-4.69715 2.807145,-3.68527 7.357393,-4.78729 11.438509,-2.7703 1.842172,0.91045 3.488041,2.51453 4.315808,4.22449 0.273774,0.56552 0.527208,1.02824 0.563194,1.02824 0.03594,0 0.504461,-0.15491 1.04108,-0.34423 1.279052,-0.45128 2.861035,-0.43625 4.260098,0.0405 2.091528,0.71266 4.231012,3.47388 4.231012,5.46059 0,0.37888 0.219312,0.54389 1.000615,0.75287 3.478943,0.93047 2.361302,5.18096 1.263153,6.18911 -1.098148,1.00817 -2.478085,1.15721 -3.201704,0.64371 -0.723618,-0.51349 -0.658188,-1.24964 -1.012702,-2.07492 -0.636706,-0.83754 -1.354431,-0.47555 -1.763285,0.13126 -0.448799,0.92859 -0.550287,2.8069 -1.261847,3.45767 -0.711555,0.65074 -2.228841,0.51958 -3.073445,-0.003 -1.228435,-0.63326 -1.342842,-2.85776 -1.391384,-3.45055 -0.06729,-0.82181 -1.364125,-0.80923 -1.417792,0.0142 -0.494153,1.51916 -0.934526,3.32577 -2.256609,4.21642 -1.49868,1.00964 -3.639559,1.02183 -5.390523,0.57517 -1.009731,-0.25758 -1.971907,-0.86896 -2.569813,-1.78022 -1.392586,-2.12242 -1.164323,-3.53247 -1.757318,-3.70842 -1.113588,-0.33042 -0.759845,1.2333 -1.874379,4.44132 -0.329886,0.94951 -1.319501,0.80983 -1.924652,0.73166 z"
         id="path3479-5-8-3"
         sodipodi:nodetypes="scccssssssssssssszzcczcscaasssss" />
      <path
         inkscape:connector-curvature="0"
         style="fill:#ffff00;fill-opacity:1;stroke-width:0.1872"
         d="m 40.866185,149.3316 c 0.162798,-0.19615 0.275089,-2.08962 0.314966,-5.31079 0.05541,-4.47741 0.104358,-5.03269 0.463559,-5.25909 0.517756,-0.32637 1.146467,0.044 1.319564,0.77721 0.17294,0.73259 0.801538,1.1034 1.319563,0.77839 0.303034,-0.1901 0.430249,-0.66859 0.518299,-1.94948 0.06418,-0.93363 0.247961,-1.92881 0.408408,-2.2115 0.629787,-1.10962 2.436371,-1.52699 3.725044,-0.8606 0.849388,0.43925 1.185529,1.06272 1.397073,2.59126 0.635927,4.59491 6.576368,4.61361 7.302045,0.023 0.264481,-1.67305 0.766063,-2.04288 2.770755,-2.04288 2.214673,0 2.603312,0.3581 2.753867,2.53745 0.08617,1.24722 0.214777,1.72365 0.516356,1.91282 0.705859,0.44279 1.189986,-0.101 1.326644,-1.49053 0.067,-0.68122 0.250792,-1.46985 0.408415,-1.75254 0.618424,-1.10914 2.430604,-1.5273 3.72282,-0.85906 0.676344,0.34974 1.369432,1.38733 1.369432,2.0501 0,0.5327 0.636069,0.42889 1.272619,-0.20766 1.122635,-1.12264 0.332533,-3.10854 -1.236768,-3.10854 -1.114132,0 -1.683737,-0.65736 -1.890618,-2.18188 -0.227979,-1.67996 -1.097769,-2.97472 -2.50553,-3.72971 -0.859585,-0.46101 -1.25648,-0.5347 -2.367565,-0.4396 -2.305667,0.19733 -3.924042,1.7111 -4.249373,3.97471 -0.174476,1.21397 -0.707919,1.73004 -1.357818,1.31358 -0.817543,-0.52388 -0.3158,-3.27703 0.901329,-4.94574 0.230554,-0.31611 0.180722,-0.60166 -0.27455,-1.57371 -0.707565,-1.51067 -1.944156,-2.78509 -3.487513,-3.59416 -1.048544,-0.54968 -1.476755,-0.63575 -3.163364,-0.63575 -1.680841,0 -2.116249,0.0868 -3.147804,0.62785 -2.378609,1.2475 -3.845125,3.37462 -4.166393,6.04316 -0.101703,0.8448 -0.337528,1.64636 -0.545569,1.85441 -0.201547,0.20155 -0.900743,0.4509 -1.55377,0.55413 -1.39805,0.22101 -2.531754,1.00736 -3.061333,2.12335 -0.32339,0.68149 -0.376533,1.77809 -0.376533,7.76969 0,5.11996 0.07327,7.0495 0.275392,7.25162 0.363989,0.36399 0.98348,0.34992 1.298351,-0.0294 z"
         id="path3461-6-2-6" />
      <g
         id="g872">
        <g
           id="g6139"
           transform="matrix(0.31929784,0,0,0.31929784,-42.801514,-95.282804)"
           style="stroke-width:0">
          <path
             id="path6141"
             transform="matrix(0.5,0,0,0.5,222.86,437.61)"
             d="m 445.71,823.79 a 51.429,51.429 0 1 1 -102.85,0 51.429,51.429 0 1 1 102.85,0 z" />
          <path
             id="path6143"
             transform="matrix(0.36111,0,0,0.36111,279.05,553.45)"
             fill="#ffffff"
             d="m 445.71,823.79 a 51.429,51.429 0 1 1 -102.85,0 51.429,51.429 0 1 1 102.85,0 z"
             style="fill:#ffffff;fill-opacity:1" />
        </g>
        <circle
           style="opacity:0.996;fill:#ff0000;fill-opacity:1;stroke:#000000;stroke-width:2.0662;stroke-miterlimit:4;stroke-dasharray:none;stroke-opacity:1;stop-color:#000000"
           id="path1007"
           cx="92.00354"
           cy="178.45631"
           r="3.1461422" />
      </g>
      <g
         id="g878">
        <g
           id="g6133"
           transform="matrix(0.31929784,0,0,0.31929784,-22.70696,-95.282804)"
           style="stroke-width:0">
          <path
             id="path6135"
             transform="matrix(0.5,0,0,0.5,222.86,437.61)"
             d="m 445.71,823.79 a 51.429,51.429 0 1 1 -102.85,0 51.429,51.429 0 1 1 102.85,0 z" />
          <path
             id="path6137"
             transform="matrix(0.36111,0,0,0.36111,279.05,553.45)"
             fill="#ffffff"
             d="m 445.71,823.79 a 51.429,51.429 0 1 1 -102.85,0 51.429,51.429 0 1 1 102.85,0 z"
             style="fill:#ffffff;fill-opacity:1" />
        </g>
        <circle
           style="opacity:0.996;fill:#ff0000;fill-opacity:1;stroke:#000000;stroke-width:2.0662;stroke-miterlimit:4;stroke-dasharray:none;stroke-opacity:1;stop-color:#000000"
           id="path1007-3"
           cx="112.42368"
           cy="174.10304"
           r="3.1461422" />
      </g>
      <rect
         id="rect1024"
         ry="16.830318"
         rx="0"
         transform="matrix(0.94527314,-0.32628007,0.8440147,0.53632004,0,0)"
         height="47.677132"
         width="3.6588416"
         y="121.53488"
         x="-74.487694"
         style="stroke-width:0" />
    </g>
  </g>
</svg>
